#!OML:ASF H:\Dans Jumps\Project 1\Capture day 1\Session 1\subject.ASF
:FULLY-SPECIFIED
:DEGREES
291
root 0.5373 15.2184 -16.4887 22.6544 -1.19745 -2.03481
lowerback 24.4236 0.166593 -0.312958
upperback 12.0635 0.182558 1.73639
thorax -0.303893 0.00321533 2.0035
lowerneck -16.2962 0.935589 -1.14
upperneck 12.7722 1.60315 -0.462453
head 6.55661 0.673821 0.200264
rclavicle -2.09966e-015 6.21823e-015
rhumerus -29.3321 -7.49786 -79.931
rradius 27.6963
rwrist 23.5274
rhand -17.7766 -24.4787
rfingers 7.12502
rthumb 8.4859 -54.2882
lclavicle -2.09966e-015 6.21823e-015
lhumerus -29.3512 -5.82885 88.5534
lradius 19.9248
lwrist 16.5669
lhand -30.5107 -7.35912
lfingers 7.12502
lthumb -3.81066 22.5866
rfemur -67.8181 -4.96279 22.7971
rtibia 68.8318
rfoot -21.2412 -8.42085
rtoes 3.07165
lfemur -67.2714 8.20573 -22.2782
ltibia 68.631
lfoot -20.2907 11.9004
ltoes -0.476284
292
root 0.536593 15.205 -16.4875 22.6697 -1.2004 -2.02881
lowerback 24.503 0.165238 -0.312433
upperback 12.0517 0.181422 1.73412
thorax -0.354762 0.00306214 2.0014
lowerneck -16.3592 0.937775 -1.14766
upperneck 12.7256 1.60833 -0.461637
head 6.55209 0.676272 0.202463
rclavicle -3.04389e-015 -1.55052e-014
rhumerus -29.7354 -7.57946 -79.7938
rradius 27.6981
rwrist 23.5152
rhand -17.7216 -24.4351
rfingers 7.12502
rthumb 8.53903 -54.2424
lclavicle -3.04389e-015 -1.55052e-014
lhumerus -29.6879 -5.55967 88.4005
lradius 19.796
lwrist 16.4842
lhand -30.4185 -7.17334
lfingers 7.12502
lthumb -3.72161 22.7739
rfemur -67.9363 -4.9625 22.7942
rtibia 69.0108
rfoot -21.309 -8.44183
rtoes 3.00909
lfemur -67.3855 8.20248 -22.2863
ltibia 68.8067
lfoot -20.3556 11.9396
ltoes -0.501379
293
root 0.536003 15.1906 -16.4866 22.6942 -1.20325 -2.02183
lowerback 24.5757 0.162717 -0.312653
upperback 12.043 0.17858 1.73157
thorax -0.399079 0.00199194 1.99981
lowerneck -16.4194 0.942749 -1.14957
upperneck 12.6655 1.61707 -0.468971
head 6.54287 0.680143 0.201401
rclavicle -1.31571e-014 2.16178e-015
rhumerus -30.1446 -7.65618 -79.654
rradius 27.6983
rwrist 23.4683
rhand -17.7001 -24.3965
rfingers 7.12502
rthumb 8.55972 -54.203
lclavicle -1.31571e-014 2.16178e-015
lhumerus -30.0311 -5.31545 88.2555
lradius 19.6604
lwrist 16.4301
lhand -30.3115 -6.9942
lfingers 7.12502
lthumb -3.61824 22.9548
rfemur -68.0733 -4.96281 22.7914
rtibia 69.2007
rfoot -21.3782 -8.46651
rtoes 2.93684
lfemur -67.5178 8.1967 -22.2972
ltibia 68.9926
lfoot -20.4227 11.9815
ltoes -0.524829
294
root 0.535492 15.1755 -16.4859 22.7253 -1.20577 -2.01363
lowerback 24.6442 0.158619 -0.312966
upperback 12.0397 0.173601 1.72811
thorax -0.435127 -0.000188426 1.99779
lowerneck -16.4829 0.949318 -1.14869
upperneck 12.5943 1.62789 -0.480281
head 6.53066 0.684898 0.198792
rclavicle -4.32357e-015 -1.70271e-014
rhumerus -30.5496 -7.73427 -79.5122
rradius 27.6866
rwrist 23.4067
rhand -17.7307 -24.3647
rfingers 7.12502
rthumb 8.53024 -54.1724
lclavicle -4.32357e-015 -1.70271e-014
lhumerus -30.3731 -5.09594 88.1179
lradius 19.5143
lwrist 16.3806
lhand -30.1373 -6.73955
lfingers 7.12502
lthumb -3.45001 23.2123
rfemur -68.2242 -4.96357 22.788
rtibia 69.3997
rfoot -21.4504 -8.49331
rtoes 2.862
lfemur -67.6634 8.18991 -22.3112
ltibia 69.1869
lfoot -20.4937 12.0242
ltoes -0.538801
295
root 0.535085 15.1598 -16.4853 22.7628 -1.20992 -2.00345
lowerback 24.7049 0.153464 -0.314492
upperback 12.0445 0.166804 1.7227
thorax -0.458507 -0.00337934 1.99479
lowerneck -16.541 0.959074 -1.14107
upperneck 12.5013 1.64249 -0.500208
head 6.51063 0.69127 0.192588
rclavicle 7.31776e-015 4.13721e-015
rhumerus -30.9419 -7.81167 -79.371
rradius 27.6564
rwrist 23.3416
rhand -17.8208 -24.3349
rfingers 7.12502
rthumb 8.44332 -54.1461
lclavicle 7.31776e-015 4.13721e-015
lhumerus -30.7082 -4.8986 87.9863
lradius 19.3599
lwrist 16.3123
lhand -30.017 -6.58287
lfingers 7.12502
lthumb -3.3339 23.3708
rfemur -68.3877 -4.96453 22.7833
rtibia 69.6066
rfoot -21.5256 -8.52291
rtoes 2.77685
lfemur -67.8206 8.18311 -22.3295
ltibia 69.389
lfoot -20.5678 12.0688
ltoes -0.552973
296
root 0.534753 15.1435 -16.4848 22.805 -1.21383 -1.9929
lowerback 24.7612 0.146264 -0.314536
upperback 12.0568 0.157546 1.71585
thorax -0.471159 -0.00778815 1.98996
lowerneck -16.597 0.970597 -1.12925
upperneck 12.3928 1.65909 -0.525306
head 6.48535 0.69851 0.184175
rclavicle 4.63417e-015 6.32073e-015
rhumerus -31.3179 -7.88725 -79.2302
rradius 27.6089
rwrist 23.2952
rhand -17.9549 -24.3082
rfingers 7.12502
rthumb 8.31382 -54.1246
lclavicle 4.63417e-015 6.32073e-015
lhumerus -31.0299 -4.70304 87.8525
lradius 19.1908
lwrist 16.1866
lhand -29.8297 -6.35306
lfingers 7.12502
lthumb -3.153 23.6034
rfemur -68.5606 -4.96534 22.7787
rtibia 69.8193
rfoot -21.6024 -8.55511
rtoes 2.68544
lfemur -67.9872 8.17632 -22.3496
ltibia 69.5974
lfoot -20.6419 12.1133
ltoes -0.571036
297
root 0.534542 15.1269 -16.4843 22.8478 -1.21863 -1.98119
lowerback 24.8163 0.137877 -0.314588
upperback 12.0769 0.146628 1.70797
thorax -0.474615 -0.0130942 1.98445
lowerneck -16.6488 0.985881 -1.11036
upperneck 12.2695 1.68039 -0.56028
head 6.45476 0.707656 0.171841
rclavicle -1.74558e-015 2.85753e-016
rhumerus -31.6756 -7.96784 -79.0844
rradius 27.5418
rwrist 23.2957
rhand -18.1121 -24.2789
rfingers 7.12502
rthumb 8.16212 -54.1013
lclavicle -1.74558e-015 2.85753e-016
lhumerus -31.3343 -4.48951 87.7103
lradius 18.9996
lwrist 15.9762
lhand -29.6995 -6.24039
lfingers 7.12502
lthumb -3.02724 23.7179
rfemur -68.7367 -4.96612 22.7722
rtibia 70.0367
rfoot -21.681 -8.58642
rtoes 2.59652
lfemur -68.1563 8.17006 -22.3715
ltibia 69.8104
lfoot -20.7178 12.1563
ltoes -0.584151
298
root 0.534419 15.1101 -16.4836 22.8874 -1.22514 -1.97006
lowerback 24.8742 0.129131 -0.313034
upperback 12.1039 0.135421 1.69845
thorax -0.471757 -0.0185193 1.97633
lowerneck -16.6974 1.00045 -1.09126
upperneck 12.141 1.70028 -0.593918
head 6.42198 0.716315 0.159728
rclavicle -4.14652e-016 2.57799e-016
rhumerus -32.0168 -8.06094 -78.9324
rradius 27.4586
rwrist 23.369
rhand -18.2617 -24.254
rfingers 7.12502
rthumb 8.0178 -54.0819
lclavicle -4.14652e-016 2.57799e-016
lhumerus -31.6218 -4.25416 87.5552
lradius 18.7866
lwrist 15.6773
lhand -29.6228 -6.21416
lfingers 7.12502
lthumb -2.95317 23.7451
rfemur -68.9105 -4.96473 22.7646
rtibia 70.257
rfoot -21.7589 -8.61919
rtoes 2.51077
lfemur -68.3235 8.16747 -22.3942
ltibia 70.0266
lfoot -20.7919 12.1982
ltoes -0.613938
299
root 0.534413 15.0931 -16.483 22.9251 -1.23135 -1.96217
lowerback 24.9374 0.120083 -0.309192
upperback 12.1349 0.124326 1.69077
thorax -0.46678 -0.0239165 1.96892
lowerneck -16.7488 1.0148 -1.07346
upperneck 12.0181 1.72036 -0.628448
head 6.39147 0.724875 0.147604
rclavicle -1.0979e-014 4.75064e-015
rhumerus -32.3422 -8.17118 -78.7662
rradius 27.3623
rwrist 23.5259
rhand -18.38 -24.227
rfingers 7.12502
rthumb 7.90362 -54.0593
lclavicle -1.0979e-014 4.75064e-015
lhumerus -31.8926 -3.99184 87.3897
lradius 18.5548
lwrist 15.3002
lhand -29.542 -6.23306
lfingers 7.12502
lthumb -2.87517 23.7273
rfemur -69.0837 -4.96099 22.7589
rtibia 70.4788
rfoot -21.8336 -8.65168
rtoes 2.43484
lfemur -68.4918 8.16707 -22.4136
ltibia 70.2454
lfoot -20.8627 12.236
ltoes -0.65093
300
root 0.534546 15.0759 -16.4824 22.9592 -1.23775 -1.95636
lowerback 25.009 0.111921 -0.304265
upperback 12.1673 0.114654 1.68508
thorax -0.464258 -0.0286489 1.96275
lowerneck -16.8007 1.02846 -1.05467
upperneck 11.907 1.73978 -0.665833
head 6.36491 0.732815 0.134394
rclavicle 5.56286e-015 -8.35362e-015
rhumerus -32.6577 -8.3109 -78.5813
rradius 27.2563
rwrist 23.7714
rhand -18.4479 -24.195
rfingers 7.12502
rthumb 7.83804 -54.0297
lclavicle 5.56286e-015 -8.35362e-015
lhumerus -32.1517 -3.71189 87.2181
lradius 18.3085
lwrist 14.8674
lhand -29.4926 -6.29828
lfingers 7.12502
lthumb -2.82748 23.6627
rfemur -69.2538 -4.95542 22.7533
rtibia 70.701
rfoot -21.905 -8.68339
rtoes 2.36483
lfemur -68.6579 8.16971 -22.4318
ltibia 70.4659
lfoot -20.9328 12.2691
ltoes -0.690748
301
root 0.534825 15.0588 -16.482 22.9909 -1.24308 -1.95656
lowerback 25.0871 0.104281 -0.294522
upperback 12.2006 0.106753 1.68234
thorax -0.463889 -0.0324243 1.95663
lowerneck -16.8564 1.04021 -1.03897
upperneck 11.8137 1.75722 -0.701141
head 6.34464 0.73966 0.12225
rclavicle -6.03187e-015 -1.49679e-014
rhumerus -32.966 -8.48765 -78.3733
rradius 27.1411
rwrist 24.0964
rhand -18.4813 -24.1521
rfingers 7.12502
rthumb 7.80581 -53.988
lclavicle -6.03187e-015 -1.49679e-014
lhumerus -32.4008 -3.42492 87.0443
lradius 18.054
lwrist 14.4139
lhand -29.5359 -6.49516
lfingers 7.12502
lthumb -2.86922 23.4653
rfemur -69.4205 -4.9474 22.7524
rtibia 70.9223
rfoot -21.9741 -8.7154
rtoes 2.29593
lfemur -68.8232 8.17681 -22.4449
ltibia 70.6878
lfoot -21.0022 12.2961
ltoes -0.730496
302
root 0.535255 15.0416 -16.4818 23.0224 -1.24666 -1.96111
lowerback 25.1725 0.0971322 -0.283086
upperback 12.232 0.100066 1.68417
thorax -0.469112 -0.0356618 1.95425
lowerneck -16.9171 1.04793 -1.03295
upperneck 11.7403 1.77076 -0.729892
head 6.33151 0.744526 0.11349
rclavicle -7.43579e-015 2.13197e-014
rhumerus -33.2679 -8.69599 -78.1413
rradius 27.0179
rwrist 24.4661
rhand -18.5136 -24.0878
rfingers 7.12502
rthumb 7.77467 -53.9249
lclavicle -7.43579e-015 2.13197e-014
lhumerus -32.6428 -3.13472 86.8742
lradius 17.796
lwrist 13.9656
lhand -29.6405 -6.73817
lfingers 7.12502
lthumb -2.97028 23.2209
rfemur -69.5871 -4.93844 22.7556
rtibia 71.142
rfoot -22.0403 -8.74737
rtoes 2.22351
lfemur -68.9907 8.1868 -22.4551
ltibia 70.9102
lfoot -21.0711 12.316
ltoes -0.760651
